<?xml version="1.0" standalone="no"?><!DOCTYPE svg PUBLIC "-//W3C//DTD SVG 1.1//EN" "http://www.w3.org/Graphics/SVG/1.1/DTD/svg11.dtd"><svg t="1515494707112" class="icon" style="" viewBox="0 0 1024 1024" version="1.1" xmlns="http://www.w3.org/2000/svg" p-id="4220" xmlns:xlink="http://www.w3.org/1999/xlink" width="200" height="200"><defs><style type="text/css"></style></defs><path d="M512.8 142.4L768 325.6V832H256V325.6l256.8-183.2m0-71.2c-6.4 0-12.8 1.6-18.4 5.6L104 355.2c-12.8 8.8-6.4 28.8 9.6 28.8H192v496c0 8.8 7.2 16 16 16h608c8.8 0 16-7.2 16-16V384h78.4c15.2 0 21.6-20 9.6-28.8L531.2 77.6c-5.6-4-12-6.4-18.4-6.4z m144 483.2L570.4 640h52c-22.4 38.4-63.2 64-110.4 64-32 0-61.6-12-84-32l-57.6 32.8C405.6 744 456 768 512 768c83.2 0 154.4-53.6 180.8-128h50.4L656.8 554.4zM401.6 512c22.4-38.4 63.2-64 110.4-64 32.8 0 62.4 12.8 84.8 32.8l57.6-32.8c-35.2-39.2-85.6-64-142.4-64-83.2 0-154.4 53.6-180.8 128h-50.4l86.4 85.6L453.6 512h-52z" p-id="4221" fill="#3E69E4"></path></svg>