<?xml version="1.0" standalone="no"?><!DOCTYPE svg PUBLIC "-//W3C//DTD SVG 1.1//EN" "http://www.w3.org/Graphics/SVG/1.1/DTD/svg11.dtd"><svg t="1515488994708" class="icon" style="" viewBox="0 0 1024 1024" version="1.1" xmlns="http://www.w3.org/2000/svg" p-id="3393" xmlns:xlink="http://www.w3.org/1999/xlink" width="200" height="200"><defs><style type="text/css"></style></defs><path d="M758.4 192l76.8 192H768v448H256V384h-68l80-192h490.4m32-64H236c-6.4 0-12 4-14.4 9.6l-120 288c-4 10.4 3.2 22.4 14.4 22.4H192v432c0 8.8 7.2 16 16 16h608c8.8 0 16-7.2 16-16V448h73.6c11.2 0 19.2-11.2 15.2-21.6l-115.2-288c-2.4-6.4-8.8-10.4-15.2-10.4zM640 448H384v64h256v-64z m0 128H384v64h256v-64z m0 128H384v64h256v-64z" p-id="3394"></path></svg>