<?xml version="1.0" standalone="no"?><!DOCTYPE svg PUBLIC "-//W3C//DTD SVG 1.1//EN" "http://www.w3.org/Graphics/SVG/1.1/DTD/svg11.dtd"><svg t="1515567613256" class="icon" style="" viewBox="0 0 1024 1024" version="1.1" xmlns="http://www.w3.org/2000/svg" p-id="3950" xmlns:xlink="http://www.w3.org/1999/xlink" width="200" height="200"><defs><style type="text/css"></style></defs><path d="M514.236379 56.544018c-250.393605 0-453.250499 202.856894-453.250499 453.250499s202.861647 453.250499 453.250499 453.250499 453.250499-202.856894 453.250499-453.250499c0.004753-250.22249-203.028009-453.250499-453.250499-453.250499z m0 840.797572c-213.955606 0-387.551826-173.415598-387.551826-387.551826C126.684553 295.834158 300.104905 122.237938 514.236379 122.237938s387.547072 173.420351 387.547072 387.551826c-0.175868 214.136227-173.586713 387.551826-387.547072 387.551826z" fill="#707070" p-id="3951"></path><path d="M544.100708 531.283716h179.109927c13.812787 0 22.340021-15.362329 22.340021-29.175117s-8.527233-27.093216-22.340021-27.093216h-177.023274V283.723015c0-13.808034-15.367082-22.340021-29.184622-22.340021-13.803281 0-27.093216 8.527233-27.093217 22.340021v191.292368h-183.287986c-13.808034 0-22.335267 15.367082-22.335267 29.175116 0 13.81754 8.527233 27.093216 22.335267 27.093217h185.959282v169.033151c0 13.808034 13.275676 22.340021 27.088464 22.340021 1.14552 0 24.431427-3.769284 24.431426-17.586825v-173.786347z" fill="#707070" p-id="3952"></path></svg>