<?xml version="1.0" standalone="no"?><!DOCTYPE svg PUBLIC "-//W3C//DTD SVG 1.1//EN" "http://www.w3.org/Graphics/SVG/1.1/DTD/svg11.dtd"><svg t="1515567579825" class="icon" style="" viewBox="0 0 1024 1024" version="1.1" xmlns="http://www.w3.org/2000/svg" p-id="2488" xmlns:xlink="http://www.w3.org/1999/xlink" width="200" height="200"><defs><style type="text/css"></style></defs><path d="M319.75 96.27l64 0 0 224-64 0 0-224Z" fill="#666666" p-id="2489"></path><path d="M640.82 96.27l64 0 0 224-64 0 0-224Z" fill="#666666" p-id="2490"></path><path d="M256.29 576.27l128 0 0 64-128 0 0-64Z" fill="#666666" p-id="2491"></path><path d="M448.29 576.27l320 0 0 64-320 0 0-64Z" fill="#666666" p-id="2492"></path><path d="M256.29 704.27l128 0 0 64-128 0 0-64Z" fill="#666666" p-id="2493"></path><path d="M448.29 704.27l320 0 0 64-320 0 0-64Z" fill="#666666" p-id="2494"></path><path d="M256.29 449.33l128 0 0 64-128 0 0-64Z" fill="#666666" p-id="2495"></path><path d="M448.29 449.33l320 0 0 64-320 0 0-64Z" fill="#666666" p-id="2496"></path><path d="M416.29 165.6h192v64h-192z" fill="#666666" p-id="2497"></path><path d="M881.1 165.6H736.29v64h128v634.67h-704V229.6h128v-64H143.48a47.19 47.19 0 0 0-47.19 47.19v668.29a47.19 47.19 0 0 0 47.19 47.19H881.1a47.19 47.19 0 0 0 47.19-47.19V212.79a47.19 47.19 0 0 0-47.19-47.19z" fill="#666666" p-id="2498"></path></svg>