<?xml version="1.0" standalone="no"?><!DOCTYPE svg PUBLIC "-//W3C//DTD SVG 1.1//EN" "http://www.w3.org/Graphics/SVG/1.1/DTD/svg11.dtd"><svg t="1515567652060" class="icon" style="" viewBox="0 0 1024 1024" version="1.1" xmlns="http://www.w3.org/2000/svg" p-id="1862" xmlns:xlink="http://www.w3.org/1999/xlink" width="200" height="200"><defs><style type="text/css"></style></defs><path d="M889.664 497.536l-161.856-161.856a20.288 20.288 0 0 0-28.736 0l-32.704 32.704a20.288 20.288 0 0 0 0 28.736l71.424 71.424h-331.392a20.288 20.288 0 0 0-20.288 20.288v46.272c0 11.2 9.088 20.288 20.288 20.288h331.264l-71.424 71.424a20.288 20.288 0 0 0 0 28.736l32.704 32.704a20.288 20.288 0 0 0 28.736 0l129.28-129.28 32.704-32.704a20.288 20.288 0 0 0 0-28.736z" p-id="1863" fill="#d81e06"></path><path d="M640 768v9.856c0 29.888-22.976 54.144-51.264 54.144h-345.408c-28.352 0-51.264-24.256-51.264-54.144v-531.648c0-29.888 22.976-54.144 51.264-54.144h345.408c28.352 0 51.264 24.256 51.264 54.144v9.792h64v-64a64 64 0 0 0-64.128-64h-447.808c-35.392 0-64.128 28.672-64.128 64v640a64 64 0 0 0 64.128 64h447.808c35.392 0 64.128-28.672 64.128-64v-64h-64z" p-id="1864" fill="#d81e06"></path></svg>